<svg xmlns="http://www.w3.org/2000/svg" aria-hidden="true" style="position:absolute;width:0;height:0;overflow:hidden">
  <defs>
    <symbol id="icon-email" viewBox="0 0 30 32">
      <path d="m19.614 19.485 9.938 9.935a4.582 4.582 0 0 1-3.38 1.811l-.268.008H4.571a4.568 4.568 0 0 1-3.648-1.814l9.937-9.938 3.532 2.354.177.101a1.52 1.52 0 0 0 1.338 0l.177-.101 3.531-2.354zM0 12.244l8.273 5.516L0 26.034v-13.79zm30.476 0v13.79l-8.274-8.274 8.274-5.516zM15.909.918l.175.101 12.867 8.578-13.713 9.143L1.524 9.597l12.869-8.579a1.535 1.535 0 0 1 1.516-.1z"/>
    </symbol>
    <symbol id="icon-facebook" viewBox="0 0 20 32">
      <path d="M13.667.792a7.71 7.71 0 0 0-7.709 7.709v4.292H1.833a.374.374 0 0 0-.375.375v5.667c0 .207.167.375.375.375h4.125v11.625c0 .207.167.375.375.375H12a.374.374 0 0 0 .375-.375V19.21h4.162a.374.374 0 0 0 .363-.283l1.417-5.667a.371.371 0 0 0-.068-.322.374.374 0 0 0-.296-.144h-5.578V8.502a1.284 1.284 0 0 1 .378-.913 1.29 1.29 0 0 1 .913-.378h4.333a.374.374 0 0 0 .375-.375V1.169a.374.374 0 0 0-.375-.375h-4.333z"/>
    </symbol>
    <symbol id="icon-instag" viewBox="0 0 32 32">
      <path d="M17.523 1.185c1.667.004 2.513.013 3.243.034l.287.01c.332.012.659.027 1.055.044 1.576.074 2.652.323 3.596.689a7.222 7.222 0 0 1 2.625 1.708 7.242 7.242 0 0 1 1.708 2.625c.366.944.615 2.019.689 3.597.018.394.033.721.044 1.055l.009.287c.022.729.031 1.575.034 3.241l.002 1.105v1.941c.004 1.081-.008 2.161-.034 3.241l-.009.287c-.012.333-.027.661-.044 1.055-.074 1.578-.326 2.652-.69 3.597a7.268 7.268 0 0 1-1.708 2.625 7.242 7.242 0 0 1-2.625 1.708c-.944.366-2.019.615-3.596.689l-1.055.044-.287.009c-.73.021-1.576.031-3.243.034l-3.044.002c-1.081.004-2.162-.008-3.243-.034l-.287-.009a93.017 93.017 0 0 1-1.055-.046c-1.576-.074-2.652-.323-3.597-.689a7.273 7.273 0 0 1-2.624-1.708 7.26 7.26 0 0 1-1.71-2.625c-.366-.944-.615-2.019-.689-3.597l-.044-1.055-.007-.287a116.74 116.74 0 0 1-.037-3.241v-3.046c-.004-1.081.007-2.161.033-3.241l.01-.287c.012-.333.027-.661.044-1.055.074-1.578.323-2.652.689-3.597A7.255 7.255 0 0 1 3.676 3.67a7.257 7.257 0 0 1 2.622-1.708c.945-.366 2.019-.615 3.597-.689.394-.018.723-.033 1.055-.044l.287-.009c1.08-.026 2.161-.038 3.242-.034l3.046-.001zM16 8.593a7.41 7.41 0 0 0-5.238 12.646 7.41 7.41 0 0 0 10.476 0 7.41 7.41 0 0 0 0-10.476A7.41 7.41 0 0 0 16 8.593zm0 2.963a4.45 4.45 0 0 1 4.107 2.743 4.45 4.45 0 0 1-2.405 5.808 4.45 4.45 0 0 1-4.844-.964 4.444 4.444 0 0 1 3.143-7.588zm7.779-5.186a1.851 1.851 0 1 0 0 3.703 1.851 1.851 0 0 0 0-3.703z"/>
    </symbol>
    <symbol id="icon-location" viewBox="0 0 25 32">
      <path d="M9.899 29.65a37.61 37.61 0 0 0 2.623 1.952 37.765 37.765 0 0 0 2.623-1.952 38.908 38.908 0 0 0 3.969-3.755c2.844-3.11 5.93-7.617 5.93-12.678a12.528 12.528 0 0 0-3.667-8.854A12.516 12.516 0 0 0 12.523.696a12.528 12.528 0 0 0-8.854 3.667 12.521 12.521 0 0 0-3.667 8.854c0 5.06 3.086 9.567 5.93 12.678a39.013 39.013 0 0 0 3.969 3.755zm2.623-11.911a4.52 4.52 0 1 1 0-9.042 4.52 4.52 0 0 1 0 9.042z"/>
    </symbol>
    <symbol id="icon-Phone" viewBox="0 0 32 32">
      <path stroke-width="1.778" d="M1.778.889H8a.889.889 0 0 1 .888.888c0 2.312.37 4.535 1.054 6.611v.002a.895.895 0 0 1-.224.918L5.35 13.676l.293.575a27.724 27.724 0 0 0 12.104 12.104l.575.293 4.368-4.368a.895.895 0 0 1 .918-.224v-.002c2.077.685 4.3 1.056 6.613 1.056a.889.889 0 0 1 .888.888v6.222a.889.889 0 0 1-.888.888A29.332 29.332 0 0 1 .888 1.775a.889.889 0 0 1 .888-.888z"/>
    </symbol>
    <symbol id="icon-watsup" viewBox="0 0 32 32">
      <path d="M16.002.761c8.416 0 15.238 6.822 15.238 15.238s-6.822 15.238-15.238 15.238a15.156 15.156 0 0 1-7.665-2.065L.77 31.237l2.06-7.57a15.158 15.158 0 0 1-2.066-7.668C.764 7.583 7.586.761 16.002.761zm-5.194 8.076-.305.012c-.197.014-.39.065-.567.152a2.014 2.014 0 0 0-.448.347c-.183.172-.287.322-.398.466a4.161 4.161 0 0 0-.863 2.557c.003.747.198 1.473.503 2.153.623 1.374 1.649 2.83 3.002 4.178.326.325.646.651.99.954a14.402 14.402 0 0 0 5.851 3.118l.866.132c.282.015.564-.006.847-.02a3.06 3.06 0 0 0 1.269-.352c.199-.103.394-.215.584-.335 0 0 .064-.044.191-.137.206-.152.332-.261.503-.439a1.76 1.76 0 0 0 .32-.46c.119-.248.238-.722.286-1.117.037-.302.026-.466.021-.568-.006-.163-.142-.332-.29-.404l-.887-.398s-1.326-.578-2.136-.946a.754.754 0 0 0-.268-.062.736.736 0 0 0-.576.193c-.008-.003-.11.084-1.211 1.419a.528.528 0 0 1-.561.198 2.003 2.003 0 0 1-.291-.101c-.189-.079-.255-.11-.384-.165a9.146 9.146 0 0 1-2.4-1.528c-.192-.168-.37-.35-.553-.527a9.61 9.61 0 0 1-1.554-1.932l-.09-.145a1.488 1.488 0 0 1-.155-.312c-.058-.224.093-.404.093-.404s.37-.405.542-.625c.168-.213.309-.421.401-.568.18-.29.236-.587.142-.817a126.62 126.62 0 0 0-1.323-3.11c-.09-.204-.357-.351-.599-.379a5.157 5.157 0 0 0-.247-.024 4.492 4.492 0 0 0-.614.006l.308-.011z"/>
    </symbol>
    <symbol id="icon-close" viewBox="0 0 32 32">
      <path stroke-linecap="round" stroke-linejoin="round" stroke-width="4.571" d="M28.93 28.93 16 16m0 0L3.07 3.07M16 16 28.93 3.07M16 16 3.07 28.93"/>
    </symbol>
    <symbol id="icon-phone" viewBox="0 0 32 32">
      <path d="M22 20c-2 2-2 4-4 4s-4-2-6-4-4-4-4-6 2-2 4-4-4-8-6-8-6 6-6 6c0 4 4.109 12.109 8 16s12 8 16 8c0 0 6-4 6-6s-6-8-8-6z"/>
    </symbol>
  </defs>
</svg>
